<?xml version="1.0" standalone="no"?>
<!DOCTYPE svg PUBLIC "-//W3C//DTD SVG 20010904//EN"
 "http://www.w3.org/TR/2001/REC-SVG-20010904/DTD/svg10.dtd">
<svg version="1.0" xmlns="http://www.w3.org/2000/svg"
 width="300.000000pt" height="424.000000pt" viewBox="0 0 300.000000 424.000000"
 preserveAspectRatio="xMidYMid meet">

<g transform="translate(0.000000,424.000000) scale(0.100000,-0.100000)"
fill="none" stroke="#FFD700" stroke-width="10">
<path d="M793 4078 c-37 -43 -61 -93 -93 -198 -59 -195 -53 -185 -120 -209
-71 -26 -202 -121 -255 -184 -53 -63 -124 -185 -135 -232 -23 -92 -44 -129
-83 -149 -50 -24 -69 -56 -70 -115 -1 -60 39 -147 88 -189 18 -17 59 -38 90
-46 52 -16 59 -21 99 -84 24 -37 66 -88 92 -114 93 -88 245 -170 368 -198 91
-20 86 -8 86 -208 0 -353 31 -499 166 -800 91 -202 92 -214 24 -296 -37 -46
-52 -73 -61 -115 -19 -95 -9 -127 63 -196 35 -34 76 -71 92 -83 16 -12 26 -26
22 -30 -4 -4 -112 -10 -239 -13 -241 -7 -259 -9 -342 -52 -89 -45 -135 -109
-135 -185 0 -33 8 -46 68 -104 64 -63 116 -98 144 -98 7 0 33 -11 58 -24 42
-22 60 -24 245 -29 126 -4 226 -12 270 -22 105 -24 209 -22 275 5 54 22 62 22
370 17 314 -5 315 -5 360 18 90 46 101 117 32 208 -67 88 -75 112 -75 212 0
73 6 107 31 180 54 160 93 255 126 303 30 46 33 47 115 64 46 10 103 27 126
38 54 26 125 101 162 171 26 50 28 62 26 153 -2 147 -32 243 -101 334 -33 44
-129 114 -207 153 -61 30 -72 31 -228 39 -123 6 -172 12 -197 25 -48 25 -189
164 -301 298 -118 140 -120 149 -57 247 65 101 183 212 275 257 73 36 82 38
174 38 97 0 98 0 133 -34 59 -57 57 -82 -18 -176 -23 -29 -31 -50 -34 -95 -5
-72 9 -117 58 -178 50 -64 64 -93 84 -182 19 -82 56 -154 86 -170 37 -20 99
-12 127 16 25 25 26 28 21 139 -3 62 -1 120 4 129 5 8 29 27 53 41 50 30 209
199 225 239 16 42 12 108 -10 179 -28 89 -56 112 -150 121 -39 3 -84 13 -98
20 -15 8 -68 59 -119 114 -71 77 -107 107 -165 138 -72 38 -75 39 -178 39 -76
0 -120 -6 -160 -19 -165 -56 -297 -152 -463 -335 -32 -35 -61 -61 -64 -57 -7
7 -5 112 3 171 3 22 1 69 -5 105 l-9 65 39 59 c59 90 53 164 -19 239 -67 69
-131 91 -182 62 -42 -24 -57 -18 -133 53 -40 37 -101 82 -135 100 -39 21 -62
40 -62 50 0 46 88 187 148 237 38 31 41 68 6 73 -28 4 -130 -105 -184 -198
-58 -100 -88 -94 -56 12 20 64 33 87 73 129 40 42 41 72 2 77 -45 5 -112 -89
-153 -214 -21 -66 -41 -93 -56 -78 -22 22 33 201 88 286 40 62 3 109 -45 56z
m52 -453 c22 -8 46 -15 54 -15 7 0 43 -14 79 -31 47 -23 94 -59 168 -130 56
-55 110 -99 118 -99 8 0 31 16 50 35 20 19 42 35 50 35 21 0 73 -64 81 -99 9
-43 -1 -67 -35 -81 -16 -6 -36 -20 -46 -31 -16 -17 -16 -22 0 -77 18 -65 21
-194 6 -260 -6 -23 -24 -72 -41 -108 -17 -35 -29 -71 -26 -78 3 -7 21 -16 39
-20 43 -8 84 -51 229 -241 72 -94 180 -217 293 -332 l179 -183 131 0 c197 0
313 -39 411 -137 76 -75 99 -136 103 -265 3 -97 1 -112 -21 -160 -40 -86 -128
-157 -194 -158 -27 0 -27 -5 -13 175 12 162 4 217 -43 294 -26 41 -37 71 -37
98 0 84 -22 105 -58 56 -19 -26 -20 -27 -75 -14 -70 15 -100 4 -95 -37 2 -22
15 -33 69 -58 74 -36 135 -99 145 -150 3 -18 4 -93 2 -166 -3 -122 -6 -137
-31 -186 -62 -119 -148 -172 -292 -180 -62 -3 -94 -1 -99 7 -4 6 -23 11 -43
11 -117 0 -273 -163 -348 -363 -37 -98 -44 -138 -54 -308 l-10 -153 -36 -35
c-35 -35 -37 -36 -113 -35 -58 1 -101 10 -177 35 -94 32 -108 34 -235 34 -122
0 -135 2 -138 18 -2 12 12 33 37 56 43 40 46 47 32 70 -13 20 -45 5 -121 -55
-44 -34 -65 -45 -87 -42 -22 2 -29 9 -31 30 -3 21 7 39 42 76 78 83 54 109
-44 47 -68 -44 -90 -45 -90 -6 0 36 35 66 125 108 59 28 62 28 260 28 218 0
267 -9 315 -60 13 -13 27 -22 31 -19 5 3 9 29 9 59 0 77 53 271 99 363 43 86
95 156 161 217 24 22 54 50 66 62 50 46 15 66 -55 33 -58 -27 -71 -22 -128 47
-102 123 -147 216 -181 373 -30 136 -31 147 -42 334 -5 97 -14 174 -20 180
-18 17 -48 -27 -56 -81 -10 -68 3 -263 25 -373 39 -195 103 -346 192 -452 54
-65 59 -74 59 -120 0 -58 -17 -96 -60 -132 -31 -26 -40 -26 -71 1 -33 28 -69
-12 -69 -79 0 -17 12 -51 26 -75 32 -54 26 -73 -21 -73 -44 0 -110 56 -124
105 -18 67 5 120 83 192 31 28 56 59 56 69 0 11 -23 66 -51 124 -110 228 -156
355 -184 503 -23 126 -37 340 -30 462 12 208 33 252 128 262 63 6 72 13 62 43
-9 27 -56 50 -102 50 -34 0 -46 -7 -98 -60 -47 -47 -66 -60 -90 -60 -52 0
-176 39 -257 82 -94 48 -189 145 -231 234 -58 120 -46 109 -115 106 -56 -4
-63 -1 -86 23 -32 34 -58 89 -50 108 7 19 48 37 83 37 40 0 48 14 61 110 7 47
21 108 31 135 20 53 110 172 170 223 41 36 193 112 223 112 12 0 41 7 66 14
56 18 57 18 105 1z m1454 -540 c35 -20 93 -72 177 -161 68 -72 124 -134 124
-137 0 -3 -12 -19 -27 -36 -16 -17 -39 -55 -53 -84 -18 -37 -36 -58 -62 -72
-30 -15 -38 -26 -38 -47 0 -34 6 -37 85 -45 51 -5 69 -11 80 -27 38 -54 10
-74 -111 -83 -81 -6 -87 -5 -108 18 -44 48 -56 74 -56 118 0 41 4 48 61 103
59 56 61 60 54 96 -10 57 -48 134 -84 169 -57 58 -185 79 -296 49 -141 -37
-292 -155 -389 -302 -59 -91 -68 -99 -96 -84 -28 15 -60 69 -60 100 0 39 35
87 129 181 147 147 298 245 411 269 25 5 81 8 125 6 67 -2 89 -7 134 -31z
m477 -293 c33 -22 64 -150 38 -159 -6 -2 -29 21 -52 52 -51 68 -65 93 -57 105
7 12 55 13 71 2z m-92 -128 c47 -48 60 -135 23 -158 -15 -9 -22 -6 -40 19 -12
17 -34 42 -49 57 -33 31 -36 60 -8 88 27 27 42 25 74 -6z m-180 -383 c24 -27
19 -174 -6 -179 -10 -2 -24 8 -34 24 -24 36 -44 134 -32 157 12 23 51 22 72
-2z m-606 -1361 c2 -13 -8 -53 -22 -89 -14 -36 -32 -106 -40 -155 -9 -49 -19
-93 -24 -98 -15 -15 -162 -25 -179 -13 -51 37 105 312 207 367 42 22 54 19 58
-12z m292 5 c0 -9 -13 -56 -30 -106 -76 -232 -66 -378 36 -491 58 -65 54 -122
-9 -132 -17 -3 -158 -2 -312 2 l-280 7 -3 113 c-1 61 2 120 7 130 7 14 32 20
119 29 60 7 125 18 144 26 38 16 48 41 48 121 0 95 51 237 102 283 28 26 46
30 121 32 45 1 57 -2 57 -14z"/>
<path d="M915 3461 c-9 -29 1 -41 36 -41 27 0 30 3 27 28 -4 35 -52 45 -63 13z"/>
<path d="M395 3319 c-4 -5 -4 -21 -1 -35 10 -37 40 -28 44 14 3 26 0 32 -17
32 -11 0 -23 -5 -26 -11z"/>
<path d="M780 3206 c0 -7 7 -33 15 -56 8 -24 13 -51 10 -60 -9 -28 -61 -47
-117 -42 -9 1 -24 21 -35 47 -20 50 -38 57 -54 22 -16 -35 11 -90 59 -122 35
-23 44 -25 82 -16 57 13 92 40 107 82 13 35 8 110 -8 142 -11 20 -59 23 -59 3z"/>
<path d="M2009 1550 c-35 -32 -40 -32 -125 -15 -28 6 -34 2 -65 -37 -18 -23
-53 -65 -76 -92 -24 -26 -43 -52 -43 -57 0 -5 24 -8 52 -7 36 2 53 -1 54 -9 1
-7 2 -23 3 -34 0 -12 20 -41 44 -64 50 -51 111 -66 180 -45 51 15 71 32 109
89 34 54 36 83 6 104 -30 20 -16 35 59 62 73 26 81 45 19 45 -40 0 -50 5 -89
45 -54 54 -81 57 -128 15z m81 -144 c0 -7 -18 -30 -40 -50 -33 -30 -47 -36
-83 -35 -53 0 -132 30 -132 49 0 12 14 15 72 12 57 -2 81 2 110 18 44 23 73
26 73 6z"/>
</g>
</svg>
